<?xml version="1.0" encoding="UTF-8"?>
<!DOCTYPE svg PUBLIC "-//W3C//DTD SVG 1.1//EN" "http://www.w3.org/Graphics/SVG/1.1/DTD/svg11.dtd">
<svg xmlns="http://www.w3.org/2000/svg" xml:space="preserve" width="624px" height="598px" style="shape-rendering:geometricPrecision; text-rendering:geometricPrecision; image-rendering:optimizeQuality; fill-rule:evenodd; clip-rule:evenodd"
viewBox="0 0 235.88 226.198"
 xmlns:xlink="http://www.w3.org/1999/xlink">
 <defs>
  <style type="text/css">
   <![CDATA[
	.penta-background {fill:#fff;fill-rule:nonzero;stroke:#000;stroke-width:1;}
	.penta-border {fill:#000;fill-rule:nonzero;}
	.star-black {fill:#000;}
	.star-red {fill:#900;}
	.tank-background {fill:#fff;/*stroke:#900;stroke-width:1;*/}
	.tank-shape {fill:#000;}
   ]]>
  </style>
 </defs>
 <g id="layer_1">
  <path class="penta-background" d="M128.793 3.26324l49.6785 36.0934 49.6776 36.0929c5.16761,3.75384 8.70405,14.6181 6.72959,20.6946l-18.9754 58.4013 -18.9754 58.3995c-1.97714,6.08543 -11.195,12.8065 -17.5827,12.8065l-61.4051 0 -61.4056 0c-6.3872,0 -15.6055,-6.72111 -17.5827,-12.8065 -12.6512,-39.1437 -25.2501,-77.7128 -37.9504,-116.801 -1.97491,-6.0765 1.56198,-16.9407 6.7287,-20.6946l49.678 -36.0929 49.6785 -36.0934c5.1694,-3.75563 16.5376,-3.75563 21.7066,0z"/>
  <path class="penta-border" d="M128.793 3.26324l49.6785 36.0934 49.6776 36.0929c5.16761,3.75384 8.70405,14.6181 6.72959,20.6946l-18.9754 58.4013 -18.9754 58.3995c-1.97714,6.08543 -11.195,12.8065 -17.5827,12.8065l-61.4051 0 -61.4056 0c-6.3872,0 -15.6055,-6.72111 -17.5827,-12.8065 -12.6512,-39.1437 -25.2501,-77.7128 -37.9504,-116.801 -1.97491,-6.0765 1.56198,-16.9407 6.7287,-20.6946l49.678 -36.0929 49.6785 -36.0934c5.1694,-3.75563 16.5376,-3.75563 21.7066,0zm-78.6807 202.505c1.05084,3.23467 5.95061,6.80727 9.34554,6.80727l58.4825 0 58.4816 0c3.39538,0 8.29514,-3.5726 9.34599,-6.80727l18.0724 -55.6201 18.0715 -55.6197c1.04861,-3.22976 -0.830318,-9.00449 -3.57662,-11.0004l-47.3129 -34.3743 -47.3129 -34.3752c-2.74675,-1.99633 -8.79066,-1.99633 -11.5378,0l-47.3134 34.3752 -47.3129 34.3743c-2.7463,1.99589 -4.62523,7.77062 -3.57662,11.0004 12.0976,37.2335 24.0185,73.963 36.1438,111.24z"/>
  <polygon class="star-black" points="121.677,201.764 136.123,148.106 147.446,113.967 162.341,58.4696 116.9,94.7973 68.6137,65.259 88.7735,117.542 101.72,149.774 "/>
  <polygon class="star-red" points="152.976,132.525 162.919,162.924 174.816,199.303 150.086,181.262 118.055,157.897 61.2935,199.303 73.7898,161.094 83.1331,132.525 61.7944,117.083 26.213,91.3363 69.7222,91.4202 96.4718,91.4716 118.055,24.6096 139.638,91.4716 209.896,91.3363 "/>
  <path class="tank-background" d="M85.4817 129.738c-2.17758,2.43426 -1.57493,2.20927 -5.12431,2.57265l-15.4287 1.36467c-5.91936,0.52319 -11.3459,0.792373 -16.9465,2.99852 -5.74705,2.26239 -8.60718,6.81441 -1.10843,6.69433 -0.231685,0.134815 -0.445068,0.286594 -0.634345,0.457121 -0.788356,0.712913 -1.44949,2.30837 -1.56957,3.20655 -0.033927,0.250881 0.566491,0.108477 0.497744,0.289272 -0.716484,1.87938 -3.20521,2.54318 -1.46332,5.71312 0.145529,0.266059 0.765142,0.137494 0.835228,0.48212 0.128565,0.635238 -0.894154,2.35301 1.43699,4.95691 0.245971,0.274094 0.848621,-0.245078 1.02495,0.0276773 1.02093,1.58207 -0.130351,2.932 2.18249,4.38461 0.33927,0.213829 0.916475,-0.0781213 1.10486,0.134369 1.13566,1.27985 0.544171,2.68916 2.75835,3.7583 0.264273,0.12678 0.771839,-0.334806 0.940134,-0.181688 1.21423,1.1053 0.867816,2.64139 2.93915,3.50162 0.23481,0.0977632 0.64372,-0.291951 0.845942,-0.139726 0.486584,0.366054 0.599079,1.32762 1.08834,1.67581 0.592383,0.420962 1.93116,0.422301 2.5347,0.820497 0.586579,0.386589 0.455336,1.12852 1.09013,1.42583 2.84674,1.33119 6.21801,1.87179 9.55401,2.11151 3.42395,0.245524 6.83986,0.187491 9.53125,0.332127 2.97218,0.159367 5.14619,-0.681218 8.1389,-2.32712 3.03646,-1.66912 7.90811,-5.20333 14.8051,-8.63307 9.85311,0.703092 18.5255,0.703092 28.3777,0 6.89789,3.42975 11.7691,6.96396 14.8051,8.63307 2.99361,1.6459 5.16761,2.48649 8.13935,2.32712 2.69139,-0.144636 6.1073,-0.0866031 9.53169,-0.332127 3.336,-0.239721 6.70727,-0.78032 9.55357,-2.11151 0.635238,-0.297307 0.503994,-1.03924 1.09057,-1.42583 0.603989,-0.398195 1.94232,-0.399535 2.53381,-0.820497 0.489263,-0.348198 0.60265,-1.30976 1.08879,-1.67581 0.202223,-0.152225 0.611578,0.237489 0.845942,0.139726 2.07133,-0.860227 1.72492,-2.39632 2.9387,-3.50162 0.168742,-0.153118 0.676754,0.308468 0.941027,0.181688 2.21418,-1.06915 1.62224,-2.47845 2.75835,-3.7583 0.187491,-0.21249 0.764696,0.0794605 1.10486,-0.134369 2.31194,-1.45261 1.16155,-2.80255 2.18204,-4.38461 0.176777,-0.272755 0.778535,0.246417 1.02495,-0.0276773 2.33159,-2.60389 1.30842,-4.32167 1.43699,-4.95691 0.070086,-0.344627 0.6897,-0.216061 0.835228,-0.48212 1.74233,-3.16994 -0.74684,-3.83375 -1.46332,-5.71312 -0.0687468,-0.180795 0.531225,-0.038391 0.498191,-0.289272 -0.12053,-0.898172 -0.78166,-2.49363 -1.57046,-3.20655 -0.188384,-0.170528 -0.402213,-0.322306 -0.633899,-0.457121 7.4992,0.120084 4.63817,-4.43193 -1.10843,-6.69433 -5.60107,-2.20615 -11.0276,-2.47533 -16.9465,-2.99852l-15.4287 -1.36467c-3.54939,-0.363376 -2.94674,-0.138386 -5.12431,-2.57265 -0.619614,-0.647737 -1.04459,-1.2986 -1.51287,-1.98964 3.17664,-0.571848 6.11801,-1.20575 8.73887,-1.88429 1.12361,-0.290611 1.84991,-1.39145 1.73786,-2.81951 -0.553545,-7.04877 -1.5285,-9.76382 -3.78509,-15.4926 -1.3544,-3.43868 -2.11865,-3.31413 -5.30868,-5.13145 -5.75553,-3.27842 -16.368,-6.65281 -22.6802,-8.04337 -0.0366054,-0.992364 -0.0727644,-1.68206 -0.0727644,-1.94544 0,-1.20843 -6.78182,-2.19499 -15.0979,-2.19499 -8.31568,0 -15.0979,0.986561 -15.0979,2.19499 0,0.301771 -0.00267844,1.26199 -0.0629435,2.25257 -5.53768,0.686128 -9.89551,1.67046 -11.57,2.81371 -0.556224,0.380339 -1.07629,0.801748 -1.56466,1.25798l-40.1602 -9.1768c-4.9087,-1.55127 -8.44424,6.21131 -3.54983,8.28131l38.5174 9.68169c-1.67135,4.71005 -2.74317,10.2732 -4.20784,15.814 3.04896,1.73608 6.74031,3.11994 10.8736,4.19578 -0.622738,0.644612 -0.960669,1.47359 -1.64099,2.18606z"/>
  <path class="tank-shape" d="M85.4817 129.738c-2.17758,2.43426 -1.57493,2.20927 -5.12431,2.57265l-15.4287 1.36467c-5.91936,0.52319 -11.3459,0.792373 -16.9465,2.99852 -5.74705,2.26239 -8.60718,6.81441 -1.10843,6.69433 -0.231685,0.134815 -0.445068,0.286594 -0.634345,0.457121 -0.788356,0.712913 -1.44949,2.30837 -1.56957,3.20655 -0.033927,0.250881 0.566491,0.108477 0.497744,0.289272 -0.716484,1.87938 -3.20521,2.54318 -1.46332,5.71312 0.145529,0.266059 0.765142,0.137494 0.835228,0.48212 0.128565,0.635238 -0.894154,2.35301 1.43699,4.95691 0.245971,0.274094 0.848621,-0.245078 1.02495,0.0276773 1.02093,1.58207 -0.130351,2.932 2.18249,4.38461 0.33927,0.213829 0.916475,-0.0781213 1.10486,0.134369 1.13566,1.27985 0.544171,2.68916 2.75835,3.7583 0.264273,0.12678 0.771839,-0.334806 0.940134,-0.181688 1.21423,1.1053 0.867816,2.64139 2.93915,3.50162 0.23481,0.0977632 0.64372,-0.291951 0.845942,-0.139726 0.486584,0.366054 0.599079,1.32762 1.08834,1.67581 0.592383,0.420962 1.93116,0.422301 2.5347,0.820497 0.586579,0.386589 0.455336,1.12852 1.09013,1.42583 2.84674,1.33119 6.21801,1.87179 9.55401,2.11151 3.42395,0.245524 6.83986,0.187491 9.53125,0.332127 2.97218,0.159367 5.14619,-0.681218 8.1389,-2.32712 3.03646,-1.66912 7.90811,-5.20333 14.8051,-8.63307 9.85311,0.703092 18.5255,0.703092 28.3777,0 6.89789,3.42975 11.7691,6.96396 14.8051,8.63307 2.99361,1.6459 5.16761,2.48649 8.13935,2.32712 2.69139,-0.144636 6.1073,-0.0866031 9.53169,-0.332127 3.336,-0.239721 6.70727,-0.78032 9.55357,-2.11151 0.635238,-0.297307 0.503994,-1.03924 1.09057,-1.42583 0.603989,-0.398195 1.94232,-0.399535 2.53381,-0.820497 0.489263,-0.348198 0.60265,-1.30976 1.08879,-1.67581 0.202223,-0.152225 0.611578,0.237489 0.845942,0.139726 2.07133,-0.860227 1.72492,-2.39632 2.9387,-3.50162 0.168742,-0.153118 0.676754,0.308468 0.941027,0.181688 2.21418,-1.06915 1.62224,-2.47845 2.75835,-3.7583 0.187491,-0.21249 0.764696,0.0794605 1.10486,-0.134369 2.31194,-1.45261 1.16155,-2.80255 2.18204,-4.38461 0.176777,-0.272755 0.778535,0.246417 1.02495,-0.0276773 2.33159,-2.60389 1.30842,-4.32167 1.43699,-4.95691 0.070086,-0.344627 0.6897,-0.216061 0.835228,-0.48212 1.74233,-3.16994 -0.74684,-3.83375 -1.46332,-5.71312 -0.0687468,-0.180795 0.531225,-0.038391 0.498191,-0.289272 -0.12053,-0.898172 -0.78166,-2.49363 -1.57046,-3.20655 -0.188384,-0.170528 -0.402213,-0.322306 -0.633899,-0.457121 7.4992,0.120084 4.63817,-4.43193 -1.10843,-6.69433 -5.60107,-2.20615 -11.0276,-2.47533 -16.9465,-2.99852l-15.4287 -1.36467c-3.54939,-0.363376 -2.94674,-0.138386 -5.12431,-2.57265 -0.619614,-0.647737 -1.04459,-1.2986 -1.51287,-1.98964 3.17664,-0.571848 6.11801,-1.20575 8.73887,-1.88429 1.12361,-0.290611 1.84991,-1.39145 1.73786,-2.81951 -0.553545,-7.04877 -1.5285,-9.76382 -3.78509,-15.4926 -1.3544,-3.43868 -2.11865,-3.31413 -5.30868,-5.13145 -5.75553,-3.27842 -16.368,-6.65281 -22.6802,-8.04337 -0.0366054,-0.992364 -0.0727644,-1.68206 -0.0727644,-1.94544 0,-1.20843 -6.78182,-2.19499 -15.0979,-2.19499 -8.31568,0 -15.0979,0.986561 -15.0979,2.19499 0,0.301771 -0.00267844,1.26199 -0.0629435,2.25257 -5.53768,0.686128 -9.89551,1.67046 -11.57,2.81371 -0.556224,0.380339 -1.07629,0.801748 -1.56466,1.25798l-40.1602 -9.1768c-4.9087,-1.55127 -8.44424,6.21131 -3.54983,8.28131l38.5174 9.68169c-1.67135,4.71005 -2.74317,10.2732 -4.20784,15.814 3.04896,1.73608 6.74031,3.11994 10.8736,4.19578 -0.622738,0.644612 -0.960669,1.47359 -1.64099,2.18606zm72.385 -12.3539c0.316057,1.73072 -0.246863,2.08963 -1.93027,2.15168 -4.15561,0.429444 -35.284,-3.41948 -37.9254,-9.12769 -2.6155,-5.6533 -4.22926,-13.3418 -0.770499,-13.8185 6.39077,0.331234 30.0459,3.88687 36.6514,9.95801 2.22266,2.04365 3.45028,7.96971 3.97481,10.8365zm-110.161 -24.8314l46.8259 11.049c2.9329,1.16066 2.57086,3.31815 -0.702199,2.02357l-46.9353 -11.0919c-2.08785,-0.825407 -1.29056,-2.81237 0.811569,-1.98071zm37.9661 64.93c-5.17788,-1.08432 -3.17619,-3.361 -1.50038,-5.94124l6.85369 -10.5482c2.17713,-3.70027 6.87021,-4.97789 4.50872,-1.16646l-1.945 3.14048c-0.695949,1.12316 -1.57537,2.31775 0.620953,2.58381 15.6818,1.90973 33.3069,1.90973 48.9888,0 2.19677,-0.266059 1.31735,-1.46065 0.621399,-2.58381l-1.94589 -3.14048c-2.36105,-3.81143 2.33203,-2.53381 4.50961,1.16646l6.85325 10.5482c1.67671,2.58024 3.67795,4.85691 -1.49993,5.94124 -20.2339,4.23775 -45.8313,4.23775 -66.0652,0zm103.6 -9.69419c-0.235257,0.00357126 -0.471406,0.00758893 -0.706663,0.0116066 -0.641488,0.00982096 -1.79992,-2.15213 -2.44855,-2.14142 -0.50444,0.00937456 -0.499084,2.19141 -1.00754,2.20034 -1.16289,0.0191955 -2.33873,0.0401767 -3.52349,0.0571402 -1.32762,0.0196419 -2.6713,0.0406231 -4.02927,0.0611578 -0.524082,0.00758893 -1.33565,-2.10035 -1.8642,-2.09231 -0.679879,0.0102674 -1.07763,2.13785 -1.7642,2.14633 -0.17276,0.00267844 -0.347751,0.00535689 -0.521404,0.00803533 -3.68018,0.0593722 -5.09485,-3.62885 -0.591936,-3.73643 2.58649,-0.0638363 5.12833,-0.121869 7.62241,-0.180349 2.44765,-0.0571402 4.84932,-0.112941 7.20412,-0.168296 3.62885,-0.094192 4.49086,3.92035 1.63073,3.83419zm1.23164 5.0453c-0.512029,-0.00446407 -1.02674,-0.00848174 -1.54278,-0.0133922 -0.707556,-0.00535689 -1.13432,-2.0133 -1.85125,-2.0191 -0.557117,-0.00491048 -1.40306,1.99142 -1.96509,1.98651 -0.999953,-0.00848174 -2.00928,-0.0187491 -3.0262,-0.0290165 -1.28298,-0.0111602 -2.58024,-0.0245524 -3.89178,-0.036159 -0.632559,-0.0062497 -1.38208,-2.01374 -2.02178,-2.0191 -0.638363,-0.00535689 -1.16736,1.99008 -1.81286,1.98383 -0.430337,-0.00357126 -0.862906,-0.00758893 -1.29681,-0.0124994 -3.73911,-0.0374982 -3.50117,-3.5909 0.0861566,-3.63733 3.03557,-0.0388375 6.00909,-0.0803533 8.91029,-0.118298 2.83112,-0.0374982 5.61045,-0.0807998 8.32014,-0.116512 3.13824,-0.0455336 4.01767,4.06856 0.0919599,4.03106zm-2.17981 4.7654c-0.406677,-0.014285 -0.416498,-0.0276773 -0.8263,-0.0424087 -0.73568,-0.0227668 -0.678093,-1.9941 -1.42359,-2.01955 -0.4473,-0.0147314 -2.09588,1.91375 -2.54675,1.89946 -1.06156,-0.0357126 -2.13383,-0.0732108 -3.21458,-0.109816 -1.27137,-0.0428551 -1.98919,-0.0897279 -3.29136,-0.135261 -0.606221,-0.021874 -0.720502,-1.87447 -1.33253,-1.89589 -0.787463,-0.0281237 -2.24945,1.77224 -3.04718,1.74501 -0.181688,-0.0058033 -0.766035,-0.012053 -0.950402,-0.0187491 -3.73732,-0.132137 -1.89857,-3.12441 0.991025,-3.07262 3.06191,0.0593722 6.05909,0.110709 8.97011,0.163832 2.83871,0.0499976 5.61982,0.0928528 8.33309,0.138386 4.36988,0.0727644 1.51109,3.45877 -1.66153,3.34761zm-2.91192 4.69844c-0.222311,-0.00937456 -0.445068,-0.0200883 -0.668272,-0.0285701 -0.53926,-0.0236596 -0.00357126,-1.96598 -0.548188,-1.98919 -0.544617,-0.0236596 -2.58782,1.86911 -3.1378,1.84634 -1.10173,-0.0473192 -1.8017,-0.096424 -2.92531,-0.145529 -1.2178,-0.0535689 -1.94143,-0.110263 -3.19092,-0.164724 -0.551313,-0.024106 -0.307575,-1.93652 -0.864245,-1.96151 -0.55667,-0.0249988 -2.42935,1.83741 -2.99004,1.81331 -0.247756,-0.0107138 -0.497744,-0.021874 -0.745947,-0.0321413 -4.83281,-0.12678 -1.52002,-3.6092 1.20396,-3.51189 2.78335,0.101781 5.50019,0.193294 8.14872,0.285701 2.58827,0.0906207 5.12163,0.178117 7.59964,0.261595 3.97794,0.166956 0.961115,3.69893 -1.88161,3.62661zm-4.30605 3.74447c-0.701306,0.0151779 0.201776,-0.85621 -0.160707,-1.54368 -0.18392,-0.348198 -3.82616,1.4727 -4.22212,1.46422 -1.98383,-0.0464264 -3.51144,-0.0973168 -5.49572,-0.145082 -0.762464,-0.0178563 0.584794,-1.58207 -0.178563,-1.59948 -0.594168,-0.0151779 -3.2994,1.51555 -3.89267,1.50127 -4.16007,-0.0915135 -0.712466,-3.1494 2.62264,-3.02575 2.41685,0.0879423 4.79665,0.174992 7.11529,0.259363 2.26998,0.0834782 4.50291,0.168742 6.68049,0.245971 4.80201,0.215615 0.636131,2.89361 -2.46863,2.84317zm-3.39761 3.18289c-0.621399,0 0.671843,-1.45172 0.0428551,-1.45172 -0.122316,0 -0.397303,-0.0647291 -0.748179,0.0709788 -1.05263,0.408016 -2.79273,1.38029 -3.16324,1.38029 -1.27896,0 -2.05437,0.000446407 -3.35832,0.00133922 -1.25441,0 -2.00437,0.000892815 -3.2869,0.000892815 -0.64863,0 0.72318,-1.29637 0.0745501,-1.29681 -0.649076,-0.00178563 -3.83821,1.29414 -4.48729,1.29369 -3.29047,0.227221 0.245078,-2.41864 2.28873,-2.39676 2.58024,0.0312485 5.11181,0.0656219 7.58536,0.0932992 2.41953,0.0254452 4.79665,0.0513369 7.11395,0.0776749 3.94089,0.0611578 1.62358,2.36105 -2.06151,2.22713zm-3.21771 2.74183c-0.4598,0.0133922 -0.921831,0.0272309 -1.38431,0.0406231 -0.635684,0.0187491 0.903082,-1.10173 0.261148,-1.08432 -0.498637,0.0151779 -4.11231,1.17048 -4.61407,1.18477 -0.894601,0.026338 -0.862013,0.0553545 -1.76822,0.0825854 -1.1062,0.0330342 -1.76018,0.0674075 -2.8896,0.0999953 -0.799516,0.0227668 0.674522,-1.19771 -0.136154,-1.17405 -0.487031,0.0133922 -3.72438,1.27271 -4.21364,1.28699 -0.254452,0.0062497 -0.510244,0.0147314 -0.765589,0.0223204 -3.71857,0.109816 1.41824,-2.03606 2.728,-2.05437 2.60256,-0.0316949 5.15199,-0.0584794 7.63759,-0.0910671 2.44453,-0.0321413 4.83593,-0.0651755 7.17555,-0.0982096 3.67795,-0.048212 -0.532564,1.7392 -2.03071,1.78474zm-4.13016 2.15659c-1.08522,0.179456 -0.912903,0.28079 -1.9758,0.406231 -0.683003,0.0807998 0.967811,-0.781213 0.288826,-0.721841 -0.680325,0.0598186 -4.93682,1.09593 -5.61759,1.13521 -1.0995,0.0647291 -2.21865,0.0629435 -3.35743,0.0428551 -0.639702,-0.0111602 1.35663,-0.961562 0.703985,-0.975847 -0.508458,-0.0111602 -3.66501,0.912011 -4.18105,0.909332 -0.288379,-0.00178563 -0.581223,-0.00267844 -0.872727,-0.000892815 -3.28333,0.0236596 -0.0178563,-1.52716 2.53381,-1.56109 2.59765,-0.116959 5.16806,-0.243292 7.65767,-0.358465 2.45078,-0.112495 4.85736,-0.227668 7.21796,-0.341055 4.37569,-0.207133 -1.09682,1.24949 -2.39765,1.46556zm-20.8477 -32.0873l5.80196 9.07457c2.31685,3.62617 2.5972,2.75746 4.32033,-1.187l2.88692 -6.61085c0.69461,-1.5901 0.724073,-2.55613 -0.670058,-2.77799l-9.69776 -1.55127c-3.86812,-0.608007 -4.9453,-0.436587 -2.64139,3.05253zm-101.376 5.75241c0.234364,0.00357126 0.470513,0.00758893 0.706217,0.0116066 0.641041,0.00982096 1.79947,-2.15213 2.44855,-2.14142 0.503994,0.00937456 0.498637,2.19141 1.0071,2.20034 1.16378,0.0191955 2.33873,0.0401767 3.52349,0.0571402 1.32851,0.0196419 2.6722,0.0406231 4.03017,0.0611578 0.52319,0.00758893 1.33565,-2.10035 1.8642,-2.09231 0.679879,0.0102674 1.07718,2.13785 1.76331,2.14633 0.173653,0.00267844 0.347751,0.00535689 0.52185,0.00803533 3.67974,0.0593722 5.0944,-3.62885 0.591936,-3.73643 -2.58649,-0.0638363 -5.12788,-0.121869 -7.62196,-0.180349 -2.4481,-0.0571402 -4.84977,-0.112941 -7.20502,-0.168296 -3.62885,-0.094192 -4.49086,3.92035 -1.62983,3.83419zm-1.23164 5.0453c0.512029,-0.00446407 1.02674,-0.00848174 1.54234,-0.0133922 0.708002,-0.00535689 1.13477,-2.0133 1.85081,-2.0191 0.557117,-0.00491048 1.40395,1.99142 1.96509,1.98651 0.999953,-0.00848174 2.00928,-0.0187491 3.0262,-0.0290165 1.28298,-0.0111602 2.58113,-0.0245524 3.89267,-0.036159 0.631667,-0.0062497 1.38208,-2.01374 2.02089,-2.0191 0.639702,-0.00535689 1.1678,1.99008 1.81375,1.98383 0.430783,-0.00357126 0.862906,-0.00758893 1.29637,-0.0124994 3.73911,-0.0374982 3.50162,-3.5909 -0.0866031,-3.63733 -3.03512,-0.0388375 -6.00909,-0.0803533 -8.90985,-0.118298 -2.83067,-0.0374982 -5.61045,-0.0807998 -8.3197,-0.116512 -3.13869,-0.0455336 -4.01856,4.06856 -0.0919599,4.03106zm2.17981 4.7654c0.406677,-0.014285 0.416498,-0.0276773 0.826747,-0.0424087 0.734787,-0.0227668 0.677647,-1.9941 1.42359,-2.01955 0.4473,-0.0147314 2.09544,1.91375 2.54631,1.89946 1.06156,-0.0357126 2.13383,-0.0732108 3.21369,-0.109816 1.27137,-0.0428551 1.98964,-0.0897279 3.29181,-0.135261 0.606221,-0.021874 0.720055,-1.87447 1.33253,-1.89589 0.787909,-0.0281237 2.25034,1.77224 3.04718,1.74501 0.182134,-0.0058033 0.766482,-0.012053 0.949955,-0.0187491 3.73732,-0.132137 1.89946,-3.12441 -0.990578,-3.07262 -3.06146,0.0593722 -6.05909,0.110709 -8.97056,0.163832 -2.83781,0.0499976 -5.61982,0.0928528 -8.33309,0.138386 -4.36944,0.0727644 -1.51064,3.45877 1.66242,3.34761zm2.91102 4.69844c0.222311,-0.00937456 0.445961,-0.0200883 0.668718,-0.0285701 0.538814,-0.0236596 0.00312485,-1.96598 0.547742,-1.98919 0.544617,-0.0236596 2.58872,1.86911 3.13869,1.84634 1.10129,-0.0473192 1.8017,-0.096424 2.92442,-0.145529 1.21869,-0.0535689 1.94232,-0.110263 3.19181,-0.164724 0.551313,-0.024106 0.307575,-1.93652 0.863352,-1.96151 0.557563,-0.0249988 2.4298,1.83741 2.99093,1.81331 0.247756,-0.0107138 0.496852,-0.021874 0.745501,-0.0321413 4.83325,-0.12678 1.52046,-3.6092 -1.20441,-3.51189 -2.78335,0.101781 -5.49974,0.193294 -8.14828,0.285701 -2.58872,0.0906207 -5.12119,0.178117 -7.59919,0.261595 -3.97838,0.166956 -0.961562,3.69893 1.88071,3.62661zm4.30605 3.74447c0.701753,0.0151779 -0.200883,-0.85621 0.1616,-1.54368 0.183027,-0.348198 3.82616,1.4727 4.22257,1.46422 1.98294,-0.0464264 3.51099,-0.0973168 5.49438,-0.145082 0.763357,-0.0178563 -0.584347,-1.58207 0.179456,-1.59948 0.593276,-0.0151779 3.2985,1.51555 3.89223,1.50127 4.16007,-0.0915135 0.712466,-3.1494 -2.6222,-3.02575 -2.4173,0.0879423 -4.79709,0.174992 -7.11574,0.259363 -2.26998,0.0834782 -4.50336,0.168742 -6.68049,0.245971 -4.80201,0.215615 -0.636131,2.89361 2.46819,2.84317zm3.3985 3.18289c0.620953,0 -0.671843,-1.45172 -0.0428551,-1.45172 0.121869,0 0.397303,-0.0647291 0.747286,0.0709788 1.05397,0.408016 2.79362,1.38029 3.16369,1.38029 1.27896,0 2.05392,0.000446407 3.35832,0.00133922 1.25441,0 2.00437,0.000892815 3.28734,0.000892815 0.64863,0 -0.724073,-1.29637 -0.0749965,-1.29681 0.649523,-0.00178563 3.83866,1.29414 4.48729,1.29369 3.29002,0.227221 -0.245078,-2.41864 -2.28828,-2.39676 -2.58068,0.0312485 -5.11271,0.0656219 -7.58536,0.0932992 -2.41953,0.0254452 -4.79709,0.0513369 -7.11484,0.0776749 -3.93999,0.0611578 -1.62314,2.36105 2.0624,2.22713zm3.21726 2.74183c0.4598,0.0133922 0.922278,0.0272309 1.38431,0.0406231 0.635238,0.0187491 -0.902636,-1.10173 -0.261148,-1.08432 0.49953,0.0151779 4.11231,1.17048 4.61407,1.18477 0.894601,0.026338 0.862459,0.0553545 1.76822,0.0825854 1.1062,0.0330342 1.76063,0.0674075 2.8896,0.0999953 0.799069,0.0227668 -0.674075,-1.19771 0.136601,-1.17405 0.486138,0.0133922 3.72348,1.27271 4.21319,1.28699 0.254006,0.0062497 0.510244,0.0147314 0.766035,0.0223204 3.71857,0.109816 -1.41824,-2.03606 -2.72889,-2.05437 -2.60211,-0.0316949 -5.15154,-0.0584794 -7.63669,-0.0910671 -2.44542,-0.0321413 -4.83593,-0.0651755 -7.176,-0.0982096 -3.6775,-0.048212 0.533011,1.7392 2.03071,1.78474zm4.12972 2.15659c1.08566,0.179456 0.912903,0.28079 1.97625,0.406231 0.683003,0.0807998 -0.967811,-0.781213 -0.287933,-0.721841 0.678986,0.0598186 4.93682,1.09593 5.61715,1.13521 1.0995,0.0647291 2.21865,0.0629435 3.35654,0.0428551 0.640148,-0.0111602 -1.35619,-0.961562 -0.703092,-0.975847 0.507565,-0.0111602 3.66456,0.912011 4.18016,0.909332 0.289272,-0.00178563 0.581669,-0.00267844 0.873173,-0.000892815 3.28288,0.0236596 0.0174099,-1.52716 -2.53336,-1.56109 -2.59765,-0.116959 -5.16806,-0.243292 -7.65857,-0.358465 -2.45033,-0.112495 -4.85691,-0.227668 -7.21752,-0.341055 -4.37524,-0.207133 1.09682,1.24949 2.39721,1.46556zm20.8481 -32.1962l-5.80196 9.07413c-2.31685,3.62617 -2.59765,2.86683 -4.31989,-1.07763l-2.88692 -6.61085c-0.695056,-1.5901 -0.724519,-2.55613 0.669165,-2.77799l9.6982 -1.55127c3.86812,-0.608007 4.94486,-0.545064 2.64139,2.94361z"/>
 </g>
</svg>