<svg height="19" viewBox="0 0 1280 19" fill="none" xmlns="http://www.w3.org/2000/svg"><path d="M-665 0h20l-10 19h-20l10-19z" fill="url(#paint0_linear)"/><path d="M-625 0h20l-10 19h-20l10-19z" fill="url(#paint1_linear)"/><path d="M-585 0h20l-10 19h-20l10-19z" fill="url(#paint2_linear)"/><path d="M-545 0h20l-10 19h-20l10-19z" fill="url(#paint3_linear)"/><path d="M-505 0h20l-10 19h-20l10-19z" fill="url(#paint4_linear)"/><path d="M-465 0h20l-10 19h-20l10-19z" fill="url(#paint5_linear)"/><path d="M-425 0h20l-10 19h-20l10-19z" fill="url(#paint6_linear)"/><path d="M-385 0h20l-10 19h-20l10-19z" fill="url(#paint7_linear)"/><path d="M-345 0h20l-10 19h-20l10-19z" fill="url(#paint8_linear)"/><path d="M-305 0h20l-10 19h-20l10-19z" fill="url(#paint9_linear)"/><path d="M-265 0h20l-10 19h-20l10-19z" fill="url(#paint10_linear)"/><path d="M-225 0h20l-10 19h-20l10-19z" fill="url(#paint11_linear)"/><path d="M-185 0h20l-10 19h-20l10-19z" fill="url(#paint12_linear)"/><path d="M-145 0h20l-10 19h-20l10-19z" fill="url(#paint13_linear)"/><path d="M-105 0h20l-10 19h-20l10-19z" fill="url(#paint14_linear)"/><path d="M-65 0h20l-10 19h-20l10-19z" fill="url(#paint15_linear)"/><path d="M-25 0h20l-10 19h-20l10-19z" fill="url(#paint16_linear)"/><path d="M15 0h20L25 19H5L15 0z" fill="url(#paint17_linear)"/><path d="M55 0h20L65 19H45L55 0z" fill="url(#paint18_linear)"/><path d="M95 0h20l-10 19H85L95 0z" fill="url(#paint19_linear)"/><path d="M135 0h20l-10 19h-20l10-19z" fill="url(#paint20_linear)"/><path d="M175 0h20l-10 19h-20l10-19z" fill="url(#paint21_linear)"/><path d="M215 0h20l-10 19h-20l10-19z" fill="url(#paint22_linear)"/><path d="M255 0h20l-10 19h-20l10-19z" fill="url(#paint23_linear)"/><path d="M295 0h20l-10 19h-20l10-19z" fill="url(#paint24_linear)"/><path d="M335 0h20l-10 19h-20l10-19z" fill="url(#paint25_linear)"/><path d="M375 0h20l-10 19h-20l10-19z" fill="url(#paint26_linear)"/><path d="M415 0h20l-10 19h-20l10-19z" fill="url(#paint27_linear)"/><path d="M455 0h20l-10 19h-20l10-19z" fill="url(#paint28_linear)"/><path d="M495 0h20l-10 19h-20l10-19z" fill="url(#paint29_linear)"/><path d="M535 0h20l-10 19h-20l10-19z" fill="url(#paint30_linear)"/><path d="M575 0h20l-10 19h-20l10-19z" fill="url(#paint31_linear)"/><path d="M615 0h20l-10 19h-20l10-19z" fill="url(#paint32_linear)"/><path d="M654 0h20l-10 19h-20l10-19z" fill="url(#paint33_linear)"/><path d="M694 0h20l-10 19h-20l10-19z" fill="url(#paint34_linear)"/><path d="M734 0h20l-10 19h-20l10-19z" fill="url(#paint35_linear)"/><path d="M774 0h20l-10 19h-20l10-19z" fill="url(#paint36_linear)"/><path d="M814 0h20l-10 19h-20l10-19z" fill="url(#paint37_linear)"/><path d="M854 0h20l-10 19h-20l10-19z" fill="url(#paint38_linear)"/><path d="M894 0h20l-10 19h-20l10-19z" fill="url(#paint39_linear)"/><path d="M934 0h20l-10 19h-20l10-19z" fill="url(#paint40_linear)"/><path d="M974 0h20l-10 19h-20l10-19z" fill="url(#paint41_linear)"/><path d="M1014 0h20l-10 19h-20l10-19z" fill="url(#paint42_linear)"/><path d="M1054 0h20l-10 19h-20l10-19z" fill="url(#paint43_linear)"/><path d="M1094 0h20l-10 19h-20l10-19z" fill="url(#paint44_linear)"/><path d="M1134 0h20l-10 19h-20l10-19z" fill="url(#paint45_linear)"/><path d="M1174 0h20l-10 19h-20l10-19z" fill="url(#paint46_linear)"/><path d="M1214 0h20l-10 19h-20l10-19z" fill="url(#paint47_linear)"/><path d="M1254 0h20l-10 19h-20l10-19z" fill="url(#paint48_linear)"/><path d="M1294 0h20l-10 19h-20l10-19z" fill="url(#paint49_linear)"/><path d="M1334 0h20l-10 19h-20l10-19z" fill="url(#paint50_linear)"/><path d="M1374 0h20l-10 19h-20l10-19z" fill="url(#paint51_linear)"/><path d="M1414 0h20l-10 19h-20l10-19z" fill="url(#paint52_linear)"/><path d="M1454 0h20l-10 19h-20l10-19z" fill="url(#paint53_linear)"/><path d="M1494 0h20l-10 19h-20l10-19z" fill="url(#paint54_linear)"/><path d="M1534 0h20l-10 19h-20l10-19z" fill="url(#paint55_linear)"/><path d="M1574 0h20l-10 19h-20l10-19z" fill="url(#paint56_linear)"/><path d="M1614 0h20l-10 19h-20l10-19z" fill="url(#paint57_linear)"/><path d="M1654 0h20l-10 19h-20l10-19z" fill="url(#paint58_linear)"/><path d="M1694 0h20l-10 19h-20l10-19z" fill="url(#paint59_linear)"/><path d="M1734 0h20l-10 19h-20l10-19z" fill="url(#paint60_linear)"/><path d="M1774 0h20l-10 19h-20l10-19z" fill="url(#paint61_linear)"/><path d="M1814 0h20l-10 19h-20l10-19z" fill="url(#paint62_linear)"/><path d="M1854 0h20l-10 19h-20l10-19z" fill="url(#paint63_linear)"/><path d="M1894 0h20l-10 19h-20l10-19z" fill="url(#paint64_linear)"/><path d="M1934 0h20l-10 19h-20l10-19z" fill="url(#paint65_linear)"/><defs><linearGradient id="paint0_linear" x1="639.5" y1="0" x2="639.5" y2="19" gradientUnits="userSpaceOnUse"><stop stop-color="#FF4646" stop-opacity="0"/><stop offset="1" stop-color="#FF4646"/></linearGradient><linearGradient id="paint1_linear" x1="639.5" y1="0" x2="639.5" y2="19" gradientUnits="userSpaceOnUse"><stop stop-color="#FF4646" stop-opacity="0"/><stop offset="1" stop-color="#FF4646"/></linearGradient><linearGradient id="paint2_linear" x1="639.5" y1="0" x2="639.5" y2="19" gradientUnits="userSpaceOnUse"><stop stop-color="#FF4646" stop-opacity="0"/><stop offset="1" stop-color="#FF4646"/></linearGradient><linearGradient id="paint3_linear" x1="639.5" y1="0" x2="639.5" y2="19" gradientUnits="userSpaceOnUse"><stop stop-color="#FF4646" stop-opacity="0"/><stop offset="1" stop-color="#FF4646"/></linearGradient><linearGradient id="paint4_linear" x1="639.5" y1="0" x2="639.5" y2="19" gradientUnits="userSpaceOnUse"><stop stop-color="#FF4646" stop-opacity="0"/><stop offset="1" stop-color="#FF4646"/></linearGradient><linearGradient id="paint5_linear" x1="639.5" y1="0" x2="639.5" y2="19" gradientUnits="userSpaceOnUse"><stop stop-color="#FF4646" stop-opacity="0"/><stop offset="1" stop-color="#FF4646"/></linearGradient><linearGradient id="paint6_linear" x1="639.5" y1="0" x2="639.5" y2="19" gradientUnits="userSpaceOnUse"><stop stop-color="#FF4646" stop-opacity="0"/><stop offset="1" stop-color="#FF4646"/></linearGradient><linearGradient id="paint7_linear" x1="639.5" y1="0" x2="639.5" y2="19" gradientUnits="userSpaceOnUse"><stop stop-color="#FF4646" stop-opacity="0"/><stop offset="1" stop-color="#FF4646"/></linearGradient><linearGradient id="paint8_linear" x1="639.5" y1="0" x2="639.5" y2="19" gradientUnits="userSpaceOnUse"><stop stop-color="#FF4646" stop-opacity="0"/><stop offset="1" stop-color="#FF4646"/></linearGradient><linearGradient id="paint9_linear" x1="639.5" y1="0" x2="639.5" y2="19" gradientUnits="userSpaceOnUse"><stop stop-color="#FF4646" stop-opacity="0"/><stop offset="1" stop-color="#FF4646"/></linearGradient><linearGradient id="paint10_linear" x1="639.5" y1="0" x2="639.5" y2="19" gradientUnits="userSpaceOnUse"><stop stop-color="#FF4646" stop-opacity="0"/><stop offset="1" stop-color="#FF4646"/></linearGradient><linearGradient id="paint11_linear" x1="639.5" y1="0" x2="639.5" y2="19" gradientUnits="userSpaceOnUse"><stop stop-color="#FF4646" stop-opacity="0"/><stop offset="1" stop-color="#FF4646"/></linearGradient><linearGradient id="paint12_linear" x1="639.5" y1="0" x2="639.5" y2="19" gradientUnits="userSpaceOnUse"><stop stop-color="#FF4646" stop-opacity="0"/><stop offset="1" stop-color="#FF4646"/></linearGradient><linearGradient id="paint13_linear" x1="639.5" y1="0" x2="639.5" y2="19" gradientUnits="userSpaceOnUse"><stop stop-color="#FF4646" stop-opacity="0"/><stop offset="1" stop-color="#FF4646"/></linearGradient><linearGradient id="paint14_linear" x1="639.5" y1="0" x2="639.5" y2="19" gradientUnits="userSpaceOnUse"><stop stop-color="#FF4646" stop-opacity="0"/><stop offset="1" stop-color="#FF4646"/></linearGradient><linearGradient id="paint15_linear" x1="639.5" y1="0" x2="639.5" y2="19" gradientUnits="userSpaceOnUse"><stop stop-color="#FF4646" stop-opacity="0"/><stop offset="1" stop-color="#FF4646"/></linearGradient><linearGradient id="paint16_linear" x1="639.5" y1="0" x2="639.5" y2="19" gradientUnits="userSpaceOnUse"><stop stop-color="#FF4646" stop-opacity="0"/><stop offset="1" stop-color="#FF4646"/></linearGradient><linearGradient id="paint17_linear" x1="639.5" y1="0" x2="639.5" y2="19" gradientUnits="userSpaceOnUse"><stop stop-color="#FF4646" stop-opacity="0"/><stop offset="1" stop-color="#FF4646"/></linearGradient><linearGradient id="paint18_linear" x1="639.5" y1="0" x2="639.5" y2="19" gradientUnits="userSpaceOnUse"><stop stop-color="#FF4646" stop-opacity="0"/><stop offset="1" stop-color="#FF4646"/></linearGradient><linearGradient id="paint19_linear" x1="639.5" y1="0" x2="639.5" y2="19" gradientUnits="userSpaceOnUse"><stop stop-color="#FF4646" stop-opacity="0"/><stop offset="1" stop-color="#FF4646"/></linearGradient><linearGradient id="paint20_linear" x1="639.5" y1="0" x2="639.5" y2="19" gradientUnits="userSpaceOnUse"><stop stop-color="#FF4646" stop-opacity="0"/><stop offset="1" stop-color="#FF4646"/></linearGradient><linearGradient id="paint21_linear" x1="639.5" y1="0" x2="639.5" y2="19" gradientUnits="userSpaceOnUse"><stop stop-color="#FF4646" stop-opacity="0"/><stop offset="1" stop-color="#FF4646"/></linearGradient><linearGradient id="paint22_linear" x1="639.5" y1="0" x2="639.5" y2="19" gradientUnits="userSpaceOnUse"><stop stop-color="#FF4646" stop-opacity="0"/><stop offset="1" stop-color="#FF4646"/></linearGradient><linearGradient id="paint23_linear" x1="639.5" y1="0" x2="639.5" y2="19" gradientUnits="userSpaceOnUse"><stop stop-color="#FF4646" stop-opacity="0"/><stop offset="1" stop-color="#FF4646"/></linearGradient><linearGradient id="paint24_linear" x1="639.5" y1="0" x2="639.5" y2="19" gradientUnits="userSpaceOnUse"><stop stop-color="#FF4646" stop-opacity="0"/><stop offset="1" stop-color="#FF4646"/></linearGradient><linearGradient id="paint25_linear" x1="639.5" y1="0" x2="639.5" y2="19" gradientUnits="userSpaceOnUse"><stop stop-color="#FF4646" stop-opacity="0"/><stop offset="1" stop-color="#FF4646"/></linearGradient><linearGradient id="paint26_linear" x1="639.5" y1="0" x2="639.5" y2="19" gradientUnits="userSpaceOnUse"><stop stop-color="#FF4646" stop-opacity="0"/><stop offset="1" stop-color="#FF4646"/></linearGradient><linearGradient id="paint27_linear" x1="639.5" y1="0" x2="639.5" y2="19" gradientUnits="userSpaceOnUse"><stop stop-color="#FF4646" stop-opacity="0"/><stop offset="1" stop-color="#FF4646"/></linearGradient><linearGradient id="paint28_linear" x1="639.5" y1="0" x2="639.5" y2="19" gradientUnits="userSpaceOnUse"><stop stop-color="#FF4646" stop-opacity="0"/><stop offset="1" stop-color="#FF4646"/></linearGradient><linearGradient id="paint29_linear" x1="639.5" y1="0" x2="639.5" y2="19" gradientUnits="userSpaceOnUse"><stop stop-color="#FF4646" stop-opacity="0"/><stop offset="1" stop-color="#FF4646"/></linearGradient><linearGradient id="paint30_linear" x1="639.5" y1="0" x2="639.5" y2="19" gradientUnits="userSpaceOnUse"><stop stop-color="#FF4646" stop-opacity="0"/><stop offset="1" stop-color="#FF4646"/></linearGradient><linearGradient id="paint31_linear" x1="639.5" y1="0" x2="639.5" y2="19" gradientUnits="userSpaceOnUse"><stop stop-color="#FF4646" stop-opacity="0"/><stop offset="1" stop-color="#FF4646"/></linearGradient><linearGradient id="paint32_linear" x1="639.5" y1="0" x2="639.5" y2="19" gradientUnits="userSpaceOnUse"><stop stop-color="#FF4646" stop-opacity="0"/><stop offset="1" stop-color="#FF4646"/></linearGradient><linearGradient id="paint33_linear" x1="639.5" y1="0" x2="639.5" y2="19" gradientUnits="userSpaceOnUse"><stop stop-color="#FF4646" stop-opacity="0"/><stop offset="1" stop-color="#FF4646"/></linearGradient><linearGradient id="paint34_linear" x1="639.5" y1="0" x2="639.5" y2="19" gradientUnits="userSpaceOnUse"><stop stop-color="#FF4646" stop-opacity="0"/><stop offset="1" stop-color="#FF4646"/></linearGradient><linearGradient id="paint35_linear" x1="639.5" y1="0" x2="639.5" y2="19" gradientUnits="userSpaceOnUse"><stop stop-color="#FF4646" stop-opacity="0"/><stop offset="1" stop-color="#FF4646"/></linearGradient><linearGradient id="paint36_linear" x1="639.5" y1="0" x2="639.5" y2="19" gradientUnits="userSpaceOnUse"><stop stop-color="#FF4646" stop-opacity="0"/><stop offset="1" stop-color="#FF4646"/></linearGradient><linearGradient id="paint37_linear" x1="639.5" y1="0" x2="639.5" y2="19" gradientUnits="userSpaceOnUse"><stop stop-color="#FF4646" stop-opacity="0"/><stop offset="1" stop-color="#FF4646"/></linearGradient><linearGradient id="paint38_linear" x1="639.5" y1="0" x2="639.5" y2="19" gradientUnits="userSpaceOnUse"><stop stop-color="#FF4646" stop-opacity="0"/><stop offset="1" stop-color="#FF4646"/></linearGradient><linearGradient id="paint39_linear" x1="639.5" y1="0" x2="639.5" y2="19" gradientUnits="userSpaceOnUse"><stop stop-color="#FF4646" stop-opacity="0"/><stop offset="1" stop-color="#FF4646"/></linearGradient><linearGradient id="paint40_linear" x1="639.5" y1="0" x2="639.5" y2="19" gradientUnits="userSpaceOnUse"><stop stop-color="#FF4646" stop-opacity="0"/><stop offset="1" stop-color="#FF4646"/></linearGradient><linearGradient id="paint41_linear" x1="639.5" y1="0" x2="639.5" y2="19" gradientUnits="userSpaceOnUse"><stop stop-color="#FF4646" stop-opacity="0"/><stop offset="1" stop-color="#FF4646"/></linearGradient><linearGradient id="paint42_linear" x1="639.5" y1="0" x2="639.5" y2="19" gradientUnits="userSpaceOnUse"><stop stop-color="#FF4646" stop-opacity="0"/><stop offset="1" stop-color="#FF4646"/></linearGradient><linearGradient id="paint43_linear" x1="639.5" y1="0" x2="639.5" y2="19" gradientUnits="userSpaceOnUse"><stop stop-color="#FF4646" stop-opacity="0"/><stop offset="1" stop-color="#FF4646"/></linearGradient><linearGradient id="paint44_linear" x1="639.5" y1="0" x2="639.5" y2="19" gradientUnits="userSpaceOnUse"><stop stop-color="#FF4646" stop-opacity="0"/><stop offset="1" stop-color="#FF4646"/></linearGradient><linearGradient id="paint45_linear" x1="639.5" y1="0" x2="639.5" y2="19" gradientUnits="userSpaceOnUse"><stop stop-color="#FF4646" stop-opacity="0"/><stop offset="1" stop-color="#FF4646"/></linearGradient><linearGradient id="paint46_linear" x1="639.5" y1="0" x2="639.5" y2="19" gradientUnits="userSpaceOnUse"><stop stop-color="#FF4646" stop-opacity="0"/><stop offset="1" stop-color="#FF4646"/></linearGradient><linearGradient id="paint47_linear" x1="639.5" y1="0" x2="639.5" y2="19" gradientUnits="userSpaceOnUse"><stop stop-color="#FF4646" stop-opacity="0"/><stop offset="1" stop-color="#FF4646"/></linearGradient><linearGradient id="paint48_linear" x1="639.5" y1="0" x2="639.5" y2="19" gradientUnits="userSpaceOnUse"><stop stop-color="#FF4646" stop-opacity="0"/><stop offset="1" stop-color="#FF4646"/></linearGradient><linearGradient id="paint49_linear" x1="639.5" y1="0" x2="639.5" y2="19" gradientUnits="userSpaceOnUse"><stop stop-color="#FF4646" stop-opacity="0"/><stop offset="1" stop-color="#FF4646"/></linearGradient><linearGradient id="paint50_linear" x1="639.5" y1="0" x2="639.5" y2="19" gradientUnits="userSpaceOnUse"><stop stop-color="#FF4646" stop-opacity="0"/><stop offset="1" stop-color="#FF4646"/></linearGradient><linearGradient id="paint51_linear" x1="639.5" y1="0" x2="639.5" y2="19" gradientUnits="userSpaceOnUse"><stop stop-color="#FF4646" stop-opacity="0"/><stop offset="1" stop-color="#FF4646"/></linearGradient><linearGradient id="paint52_linear" x1="639.5" y1="0" x2="639.5" y2="19" gradientUnits="userSpaceOnUse"><stop stop-color="#FF4646" stop-opacity="0"/><stop offset="1" stop-color="#FF4646"/></linearGradient><linearGradient id="paint53_linear" x1="639.5" y1="0" x2="639.5" y2="19" gradientUnits="userSpaceOnUse"><stop stop-color="#FF4646" stop-opacity="0"/><stop offset="1" stop-color="#FF4646"/></linearGradient><linearGradient id="paint54_linear" x1="639.5" y1="0" x2="639.5" y2="19" gradientUnits="userSpaceOnUse"><stop stop-color="#FF4646" stop-opacity="0"/><stop offset="1" stop-color="#FF4646"/></linearGradient><linearGradient id="paint55_linear" x1="639.5" y1="0" x2="639.5" y2="19" gradientUnits="userSpaceOnUse"><stop stop-color="#FF4646" stop-opacity="0"/><stop offset="1" stop-color="#FF4646"/></linearGradient><linearGradient id="paint56_linear" x1="639.5" y1="0" x2="639.5" y2="19" gradientUnits="userSpaceOnUse"><stop stop-color="#FF4646" stop-opacity="0"/><stop offset="1" stop-color="#FF4646"/></linearGradient><linearGradient id="paint57_linear" x1="639.5" y1="0" x2="639.5" y2="19" gradientUnits="userSpaceOnUse"><stop stop-color="#FF4646" stop-opacity="0"/><stop offset="1" stop-color="#FF4646"/></linearGradient><linearGradient id="paint58_linear" x1="639.5" y1="0" x2="639.5" y2="19" gradientUnits="userSpaceOnUse"><stop stop-color="#FF4646" stop-opacity="0"/><stop offset="1" stop-color="#FF4646"/></linearGradient><linearGradient id="paint59_linear" x1="639.5" y1="0" x2="639.5" y2="19" gradientUnits="userSpaceOnUse"><stop stop-color="#FF4646" stop-opacity="0"/><stop offset="1" stop-color="#FF4646"/></linearGradient><linearGradient id="paint60_linear" x1="639.5" y1="0" x2="639.5" y2="19" gradientUnits="userSpaceOnUse"><stop stop-color="#FF4646" stop-opacity="0"/><stop offset="1" stop-color="#FF4646"/></linearGradient><linearGradient id="paint61_linear" x1="639.5" y1="0" x2="639.5" y2="19" gradientUnits="userSpaceOnUse"><stop stop-color="#FF4646" stop-opacity="0"/><stop offset="1" stop-color="#FF4646"/></linearGradient><linearGradient id="paint62_linear" x1="639.5" y1="0" x2="639.5" y2="19" gradientUnits="userSpaceOnUse"><stop stop-color="#FF4646" stop-opacity="0"/><stop offset="1" stop-color="#FF4646"/></linearGradient><linearGradient id="paint63_linear" x1="639.5" y1="0" x2="639.5" y2="19" gradientUnits="userSpaceOnUse"><stop stop-color="#FF4646" stop-opacity="0"/><stop offset="1" stop-color="#FF4646"/></linearGradient><linearGradient id="paint64_linear" x1="639.5" y1="0" x2="639.5" y2="19" gradientUnits="userSpaceOnUse"><stop stop-color="#FF4646" stop-opacity="0"/><stop offset="1" stop-color="#FF4646"/></linearGradient><linearGradient id="paint65_linear" x1="639.5" y1="0" x2="639.5" y2="19" gradientUnits="userSpaceOnUse"><stop stop-color="#FF4646" stop-opacity="0"/><stop offset="1" stop-color="#FF4646"/></linearGradient></defs></svg>